<?xml version="1.0" encoding="UTF-8"?>
<svg id="Layer_1" data-name="Layer 1" xmlns="http://www.w3.org/2000/svg" viewBox="0 0 1080 1080">
  <defs>
    <style>
      .cls-1 {
        fill: #20ce00;
        stroke-width: 18px;
      }

      .cls-1, .cls-2, .cls-3 {
        stroke: #000;
        stroke-linecap: round;
        stroke-linejoin: round;
      }

      .cls-2 {
        fill: #ffdd56;
      }

      .cls-2, .cls-3 {
        stroke-width: 17.37px;
      }

      .cls-3 {
        fill: #afacb0;
      }
    </style>
  </defs>
  <g>
    <path class="cls-3" d="M330.71,435.45c48.07-48.07,364.07-51.21,415.28,0,47.21,47.21-77.67,191.6-180.28,548.15-7.29,25.33-43.29,25.23-50.43-.15-100.7-357.95-228.89-503.69-184.57-548.01Z"/>
    <g>
      <path class="cls-3" d="M619.85,954.33c36.98-121.35,87.13-242.65,148.46-360.74,11.78-22.68,34.06-38.01,59.44-41.02,59.11-7,122.41,3.94,158.25,28.21-112.61,78.46-218.47,206.96-334.71,388.02-10.95,17.06-37.33,4.92-31.42-14.48Z"/>
      <path class="cls-3" d="M460.15,954.33c-36.98-121.35-87.13-242.65-148.46-360.74-11.78-22.68-34.06-38.01-59.44-41.02-59.11-7-122.41,3.94-158.25,28.21,112.61,78.46,218.47,206.96,334.71,388.02,10.95,17.06,37.33,4.92,31.42-14.48Z"/>
    </g>
  </g>
  <circle class="cls-2" cx="540" cy="215.47" r="138.01"/>
  <circle class="cls-1" cx="540" cy="544.81" r="57.35"/>
  <circle class="cls-2" cx="896.44" cy="427.4" r="73.91"/>
  <circle class="cls-2" cx="183.56" cy="427.4" r="73.91"/>
  <path class="cls-3" d="M330.71,435.45s177.65,193.91,165.08,228.65c-8.62,23.84-56.48.62-85.64-16.29-14.72-8.54-27.39-20.96-33.76-36.73-21.02-52.01-72.76-145.06-45.68-175.63Z"/>
  <path class="cls-3" d="M748.61,438.34s-177.65,193.91-165.08,228.65c8.62,23.84,56.48.62,85.64-16.29,14.72-8.54,27.39-20.96,33.76-36.73,21.02-52.01,72.76-145.06,45.68-175.63Z"/>
</svg>