<?xml version="1.0" encoding="UTF-8"?>
<svg id="Layer_1" data-name="Layer 1" xmlns="http://www.w3.org/2000/svg" viewBox="0 0 1080 1080">
  <defs>
    <style>
      .cls-1 {
        fill: none;
      }

      .cls-1, .cls-2, .cls-3, .cls-4, .cls-5 {
        stroke: #000;
        stroke-linejoin: round;
      }

      .cls-1, .cls-2, .cls-4, .cls-5 {
        stroke-linecap: round;
        stroke-width: 18px;
      }

      .cls-6 {
        fill: #000;
        stroke-width: 0px;
      }

      .cls-2 {
        fill: #20ce00;
      }

      .cls-3 {
        stroke-width: 10px;
      }

      .cls-3, .cls-4 {
        fill: #ffdd56;
      }

      .cls-5 {
        fill: #afacb0;
      }
    </style>
  </defs>
  <g>
    <g>
      <g>
        <rect class="cls-5" x="170.06" y="311.36" width="403.08" height="645.77" rx="40.6" ry="40.6" transform="translate(-157.15 123.58) rotate(-15.63)"/>
        <polygon class="cls-2" points="278.02 910.23 148.38 446.89 179.77 391.11 409.39 326.86 465.17 358.25 594.81 821.59 563.42 877.37 333.8 941.62 278.02 910.23"/>
        <circle class="cls-6" cx="136.18" cy="403.31" r="9.9"/>
        <circle class="cls-6" cx="452.97" cy="314.67" r="9.9"/>
        <circle class="cls-6" cx="290.22" cy="953.82" r="9.9"/>
        <circle class="cls-6" cx="607.01" cy="865.18" r="9.9"/>
      </g>
      <circle class="cls-4" cx="371.59" cy="634.24" r="119.22"/>
      <g>
        <g>
          <line class="cls-1" x1="312.43" y1="422.22" x2="319.05" y2="445.86"/>
          <line class="cls-1" x1="386.88" y1="421.79" x2="380.53" y2="445.51"/>
          <line class="cls-1" x1="450.65" y1="458.82" x2="433.2" y2="476.09"/>
          <line class="cls-1" x1="248.69" y1="460.37" x2="266.4" y2="477.37"/>
          <line class="cls-1" x1="213.13" y1="525.88" x2="237.04" y2="531.47"/>
        </g>
        <g>
          <line class="cls-1" x1="431.06" y1="846.18" x2="424.45" y2="822.54"/>
          <line class="cls-1" x1="494.92" y1="807.91" x2="477.18" y2="790.93"/>
          <line class="cls-1" x1="530.21" y1="743.16" x2="506.33" y2="737.46"/>
          <line class="cls-1" x1="356.77" y1="846.65" x2="363.09" y2="822.92"/>
          <line class="cls-1" x1="292.38" y1="809.11" x2="309.91" y2="791.92"/>
        </g>
      </g>
      <g>
        <path class="cls-1" d="M345.23,603.67c2.43,8.68-4.86,18.31-16.28,21.5-11.42,3.2-22.65-1.25-25.08-9.93"/>
        <path class="cls-1" d="M419.62,582.86c2.43,8.68-4.86,18.31-16.28,21.5-11.42,3.2-22.65-1.25-25.08-9.93"/>
      </g>
      <path class="cls-1" d="M422.58,657.95c3.58,12.81-11.93,28.34-34.65,34.7-22.72,6.36-44.04,1.13-47.63-11.68"/>
    </g>
    <g>
      <g>
        <rect class="cls-5" x="515.6" y="311.36" width="403.08" height="645.77" rx="40.6" ry="40.6" transform="translate(167.77 -149.81) rotate(13.49)"/>
        <polygon class="cls-2" points="501.07 829.8 613.33 361.94 667.9 328.49 899.75 384.12 933.21 438.69 820.95 906.55 766.38 940 534.52 884.37 501.07 829.8"/>
        <circle class="cls-6" cx="623.89" cy="317.93" r="9.9"/>
        <circle class="cls-6" cx="943.76" cy="394.68" r="9.9"/>
        <circle class="cls-6" cx="490.51" cy="873.81" r="9.9"/>
        <circle class="cls-6" cx="810.39" cy="950.56" r="9.9"/>
      </g>
      <path class="cls-4" d="M743.19,525.67c-4.67-1.12-9.35-1.93-14.01-2.44,38.63,15.42,61.12,57.25,51.12,98.89-10.97,45.71-56.92,73.88-102.63,62.91-41.64-9.99-68.72-49-64.92-90.43-1.66,4.38-3.06,8.91-4.18,13.59-14.39,59.96,22.56,120.23,82.52,134.62,59.96,14.39,120.23-22.56,134.62-82.52,14.39-59.96-22.56-120.23-82.52-134.62Z"/>
      <g>
        <path class="cls-3" d="M751.34,426.8c-20.28.44-38.52,14.42-43.48,35.09,4.96-20.67-4.95-41.41-22.82-51,20.28-.43,38.52-14.43,43.48-35.09-4.96,20.66,4.95,41.41,22.82,51Z"/>
        <path class="cls-3" d="M656.92,487.48c-12.08.26-22.95,8.59-25.9,20.9,2.95-12.31-2.95-24.67-13.6-30.38,12.08-.26,22.95-8.6,25.9-20.9-2.95,12.3,2.95,24.67,13.6,30.38Z"/>
        <path class="cls-3" d="M682.94,841.69c20.28-.44,38.52-14.42,43.48-35.09-4.96,20.67,4.95,41.41,22.82,51-20.28.43-38.52,14.43-43.48,35.09,4.96-20.66-4.95-41.41-22.82-51Z"/>
        <path class="cls-3" d="M777.36,781.01c12.08-.26,22.95-8.59,25.9-20.9-2.95,12.31,2.95,24.67,13.6,30.38-12.08.26-22.95,8.6-25.9,20.9,2.95-12.3-2.95-24.67-13.6-30.38Z"/>
      </g>
    </g>
  </g>
  <g>
    <g>
      <rect class="cls-5" x="285.34" y="95.89" width="509.33" height="816" rx="40.6" ry="40.6"/>
      <polygon class="cls-2" points="332.16 807.88 332.16 199.91 389.35 142.72 690.65 142.72 747.84 199.91 747.84 807.88 690.65 865.07 389.35 865.07 332.16 807.88"/>
      <circle class="cls-6" cx="332.16" cy="142.72" r="12.51"/>
      <circle class="cls-6" cx="747.84" cy="142.72" r="12.51"/>
      <circle class="cls-6" cx="332.16" cy="865.07" r="12.51"/>
      <circle class="cls-6" cx="747.84" cy="865.07" r="12.51"/>
    </g>
    <path class="cls-4" d="M514.88,595.11h-15.54c-3.86-20.96-5.78-37.47-5.78-49.52,0-52.77,16.38-91.99,49.16-117.65,32.77-25.66,53.73-44.03,62.89-55.12,9.15-11.08,13.74-24.58,13.74-40.48,0-19.03-8.31-35.66-24.94-49.88-16.63-14.21-37.47-21.32-62.53-21.32-23.38,0-42.65,5.96-57.83,17.89-15.18,11.93-22.77,22.23-22.77,30.9,0,3.61,4.64,5.66,13.92,6.14,9.27.49,17.17,4.28,23.67,11.39,6.51,7.11,9.76,15.12,9.76,24.04,0,9.64-3.56,17.83-10.66,24.58-7.11,6.75-15.6,10.12-25.48,10.12-11.57,0-21.14-3.91-28.73-11.75-7.59-7.83-11.39-19.7-11.39-35.6,0-25.78,10.66-48.01,31.99-66.68,21.32-18.67,47.17-28.01,77.53-28.01,38.31,0,68.85,13.07,91.62,39.22,22.77,26.15,34.15,55.84,34.15,89.09,0,25.06-6.03,47.29-18.07,66.68-12.05,19.4-37.83,42.71-77.35,69.94-32.53,22.89-48.79,45.42-48.79,67.59,0,6.27.48,12.41,1.45,18.43ZM469.7,697.4c0-12.53,4.39-23.19,13.19-31.99,8.79-8.79,19.46-13.19,31.99-13.19s23.31,4.4,32.35,13.19c9.04,8.8,13.55,19.46,13.55,31.99s-4.46,23.62-13.37,32.53c-8.92,8.91-19.76,13.37-32.53,13.37s-23.19-4.52-31.99-13.55c-8.8-9.04-13.19-19.82-13.19-32.35Z"/>
  </g>
</svg>